<svg preserveAspectRatio="none" width="100%" height="100%" overflow="visible" style="display: block;" viewBox="0 0 20 20.2163" fill="none" xmlns="http://www.w3.org/2000/svg">
<g id="Union">
<path fill-rule="evenodd" clip-rule="evenodd" d="M10.1355 6.48508L13.5149 6.4844V9.86449H16.6463V18.14C16.6463 19.2866 15.7165 20.2161 14.57 20.2163H2.07631C0.92975 20.2161 0 19.2866 0 18.14V5.48072C0 4.33412 0.92975 3.4046 2.07631 3.40441H10.1355V6.48508ZM7.04539 17.362L4.89946 15.2161L1.44436 18.6712H15.2019L10.9006 12.7796L7.04539 17.362Z" fill="var(--fill-0, #ADADAD)"/>
<path d="M16.6179 3.38143L20 3.38211V5.1002H16.6186V5.1421C16.6188 5.14324 16.6191 5.14435 16.6192 5.14548V8.48096L15.7595 8.48163L14.8991 8.48096V5.1002L11.519 5.10088L11.5184 5.1002V3.38143L14.8991 3.38076L14.8998 0H16.6179V3.38143Z" fill="var(--fill-0, #ADADAD)"/>
</g>
</svg>
