<svg preserveAspectRatio="none" width="100%" height="100%" overflow="visible" style="display: block;" viewBox="0 0 15.0967 22" fill="none" xmlns="http://www.w3.org/2000/svg">
<g id="Frame 159">
<g id="Union">
<path d="M6.17649 21.9998C5.77833 21.9831 5.44009 21.8616 5.16166 21.5771C4.90784 21.3176 4.74565 20.8771 4.67338 20.531C4.47786 19.5939 4.46443 17.8634 4.70385 16.9576C4.76879 16.7193 4.85221 16.4864 4.95307 16.2608C5.00263 16.1526 5.16032 15.8867 5.15463 15.7842C5.13763 15.4868 4.83339 15.5201 4.6187 15.5233C4.50915 15.5249 4.38959 15.5231 4.27729 15.5233L2.15857 15.5241C1.8924 15.5243 1.21392 15.5417 0.990622 15.4959C0.760523 15.4503 0.548433 15.3386 0.379693 15.1756C0.136936 14.9418 0.00171595 14.6248 1.05945e-05 14.2889C-0.00121092 14.0357 0.10347 13.719 0.171883 13.4694L1.70624 7.8562C1.80403 7.49697 1.89732 7.13024 2.00701 6.77497C2.13617 6.35636 2.54929 6.04068 2.98356 6.01092C3.20741 5.99555 3.43529 6.00154 3.65934 6.00154L10.4155 6.00232C10.5925 6.00232 10.77 5.99975 10.9467 6.00076C11.1069 6.00168 11.2371 5.9954 11.3749 6.0906C11.6127 6.25512 11.5804 6.50069 11.5803 6.75153L11.5803 13.9475C11.5803 14.1568 11.5812 14.3681 11.578 14.5772C11.5746 14.6572 11.556 14.7684 11.5045 14.8311C11.4093 14.947 11.2518 15.032 11.1303 15.1194C11.0146 15.2036 10.9003 15.2899 10.7881 15.3788C9.95214 16.035 8.97118 16.9386 8.47724 17.8897C8.27389 18.2812 8.07956 18.9169 7.97099 19.3412C7.88176 19.7047 7.79732 20.0694 7.71709 20.4349C7.66895 20.6461 7.61817 20.9013 7.54287 21.1006C7.49729 21.2231 7.43402 21.3383 7.35538 21.4427C7.07694 21.8085 6.72379 21.9355 6.2843 21.9943C6.25904 21.9982 6.20256 22.0008 6.17649 21.9998Z" fill="var(--fill-0, #D8D8D8)"/>
<path d="M14.3756 15.0819C13.9478 15.1012 13.5012 15.0754 13.0717 15.0858C12.8404 15.0914 12.6279 15.0812 12.4358 14.9381C12.1103 14.6957 12.1313 14.3817 12.1319 14.0163L12.1334 13.4178L12.1327 7.22262C12.1327 7.07226 12.1259 6.83813 12.1373 6.6945C12.148 6.5461 12.2022 6.40389 12.2928 6.28591C12.4306 6.10643 12.6135 6.03232 12.8311 6.00545C13.0379 6.00067 13.2454 6.00089 13.4529 6.00154L14.2936 6.00154C14.3682 6.00381 14.4426 6.00998 14.5084 6.02342C14.615 6.04522 14.715 6.09137 14.8006 6.15857C15.1388 6.42438 15.0947 6.78301 15.0943 7.16793L15.0936 7.90386V13.0319L15.0951 13.8741C15.0953 14.045 15.1021 14.2198 15.0865 14.3897C15.049 14.798 14.7707 15.0455 14.3756 15.0819Z" fill="var(--fill-0, #D8D8D8)"/>
</g>
</g>
</svg>
