<svg preserveAspectRatio="none" width="100%" height="100%" overflow="visible" style="display: block;" viewBox="0 0 14.3408 18" fill="none" xmlns="http://www.w3.org/2000/svg">
<path id="Union" d="M3.83691 0C4.94148 0 5.83691 0.895431 5.83691 2V16C5.83691 17.1046 4.94148 18 3.83691 18H2C0.895431 18 8.05526e-09 17.1046 0 16V2C0 0.895431 0.895431 0 2 0H3.83691ZM12.3408 0C13.4454 0 14.3408 0.895431 14.3408 2V16C14.3408 17.1046 13.4454 18 12.3408 18H10.5039C9.39934 18 8.50391 17.1046 8.50391 16V2C8.50391 0.895431 9.39934 0 10.5039 0H12.3408Z" fill="var(--fill-0, white)"/>
</svg>
